<svg xmlns="http://www.w3.org/2000/svg" viewBox="0 0 362.1 362.1" xml:space="preserve"><path d="M.7 100.2c1.6-6.4 4.3-12.1 9.6-16.3 9-7.1 22-7.3 31-.1 1.7 1.4 3.4 2.9 5 4.5l131.8 131.8c1 1 1.8 2.2 4.2 4 .7-1.2 1.2-2.7 2.1-3.7 44.3-44.4 88.6-88.7 133-133.1 7.6-7.6 16.4-10.8 26.9-7.6 8.3 2.6 13.8 8.2 16.5 16.5.4 1.3.9 2.7 1.3 4v7.1c-1.6 7.9-6.5 13.5-12 19-49.8 49.7-99.5 99.4-149.2 149.2-7.8 7.8-16.9 11.2-27.5 7.4-3.8-1.4-7.6-3.9-10.5-6.7C111.5 225 60.3 173.7 9 122.5c-4.3-4.3-6.8-9.5-8.3-15.2v-7.1z"/></svg>