<svg xmlns="http://www.w3.org/2000/svg" viewBox="0 0 362.1 362.1" xml:space="preserve"><path d="M226.8 310c-1.6-.7-3.3-1.2-4.8-2-9.6-5.2-11.3-17.7-3.2-25.7 16.2-16.3 32.5-32.5 48.8-48.8 10.7-10.7 21.4-21.4 32.1-32 .9-.9 2.3-1.4 3.5-2.1-.3-.5-.7-1-1-1.6H26.5c-13 0-16.2-2.1-20.9-13.7v-4.5c.4-1.1.9-2.3 1.3-3.4 2.6-6.2 7.2-9.7 14-10.2 1.6-.1 3.2-.1 4.9-.1h277.3c-1.5-1.6-2.4-2.7-3.4-3.6l-79.8-79.8c-4.8-4.8-7.1-10.2-5.1-16.9 3.1-10.8 16.2-15 25.1-8.1 1.2.9 2.2 2 3.3 3.1 35.5 35.5 71 71.1 106.6 106.5 3.9 3.9 7.3 7.8 8.4 13.3v3c-1.1 5.5-4.5 9.5-8.4 13.3-35 34.9-69.9 69.9-105 104.8-3.4 3.4-7.9 5.8-11.9 8.7-2.1-.2-4.1-.2-6.1-.2z"/></svg>