<svg xmlns="http://www.w3.org/2000/svg" viewBox="0 0 362.1 362.1" xml:space="preserve"><path d="M179.7 74.1h4.2c5.4.4 10.7.8 16.1 1.3 24.9 2.2 48.4 9.6 70.6 21 31.7 16.2 57.9 39.2 80.4 66.6 4.1 5 7.4 10.7 11.1 16.1v5.6c-1.1 2.1-1.8 4.4-3.2 6.2-24.5 32.1-53.5 59-89.8 77.3-21.6 10.9-44.5 17.9-68.7 20.1-5.5.5-10.9.9-16.4 1.4h-4.2c-5.4-.4-10.7-.8-16.1-1.3-24.9-2.2-48.4-9.6-70.6-21-31.7-16.2-57.9-39.2-80.4-66.6-4.1-5-7.4-10.7-11.1-16.1v-5.6c1.1-2.1 1.8-4.4 3.2-6.2 24.5-32.1 53.5-59 89.8-77.3 21.6-10.9 44.5-17.9 68.7-20.1 5.5-.6 10.9-1 16.4-1.4zm1.2 32c-42.5.6-75.4 34.9-74.8 77.9.5 40.5 35.5 74.2 76.3 73.6 42.7-.6 75.8-34.9 75.2-77.9-.6-40.7-35.5-74.2-76.7-73.6z"/><path d="M222.6 181.9c-.2 22.6-18.9 40.9-41.6 40.7-22.1-.2-40.1-18.8-40-41.1.1-22.3 18.8-40.6 41.4-40.5 22.2.1 40.4 18.6 40.2 40.9z"/></svg>