<svg xmlns="http://www.w3.org/2000/svg" viewBox="0 0 362.1 362.1" xml:space="preserve"><path d="M351.5 170.4V191c-.2 1.1-.4 2.1-.6 3.2-.9 6.7-1.5 13.5-2.8 20.1-13.3 68.6-68.8 122.9-137.8 134.6-6.2 1.1-12.5 1.8-18.7 2.6h-21.3c-.7-.2-1.5-.5-2.2-.5-14.5-1-28.6-3.7-42.2-8.7C64 319.4 26.4 275.4 13.1 210.8c-1.3-6.3-1.8-12.7-2.7-19v-21.3c.9-6.2 1.5-12.5 2.6-18.7C25 82.6 79.1 27.2 147.7 13.9c7.7-1.5 15.5-2.3 23.3-3.4h20.6c.9.2 1.7.5 2.6.5 25.7 2 49.8 9.2 71.8 22.3 45.3 27 73.1 66.4 82.9 118.4 1.2 6.2 1.8 12.4 2.6 18.7zm-190.6-10.5h-17.5c-4.1 0-5.6 1.6-5.7 5.7v16.6c0 10.4 0 10.4 10.3 10.4h13v4.6c0 21.4-.1 42.8-.1 64.3 0 4.2.7 4.9 4.8 4.9h21c4.9 0 5.6-.7 5.6-5.6v-68.1h23.3c4.2 0 5.6-1.3 6-5.4.7-6.4 1.4-12.8 2.2-19.2.9-6.9-.3-8.2-7.3-8.2h-24.1c0-7.8-.1-15.2 0-22.6.2-7.6 4.1-11.6 11.7-12.2 4.6-.3 9.3-.2 14-.3 3.6-.1 5.2-1.5 5.3-5 .1-6.3.1-12.7 0-19-.1-3.3-1.7-4.9-5-4.9-7.2 0-14.4-.2-21.6.1-17 .7-29.8 10.5-33.8 26.4-1.4 5.3-1.6 10.9-1.8 16.5-.5 6.8-.3 13.6-.3 21z"/><path d="M160.9 159.9c0-7.4-.2-14.2.1-21.1.2-5.5.5-11.2 1.8-16.5 4.1-15.9 16.8-25.7 33.8-26.4 7.2-.3 14.4-.2 21.6-.1 3.3 0 5 1.6 5 4.9.1 6.3.1 12.7 0 19-.1 3.5-1.7 4.9-5.3 5-4.7.1-9.3 0-14 .3-7.6.6-11.5 4.6-11.7 12.2-.2 7.4 0 14.8 0 22.6h24.1c7.1 0 8.2 1.3 7.3 8.2-.8 6.4-1.5 12.8-2.2 19.2-.5 4.1-1.8 5.4-6 5.4h-23.3v68.1c0 4.8-.7 5.6-5.6 5.6h-21c-4.1 0-4.8-.7-4.8-4.9 0-21.4.1-42.8.1-64.3v-4.6h-13c-10.3 0-10.3 0-10.3-10.4v-16.6c0-4.1 1.6-5.6 5.7-5.7 5.9.1 11.6.1 17.7.1z" fill="#fff"/></svg>