<svg xmlns="http://www.w3.org/2000/svg" viewBox="0 0 29 29" xml:space="preserve"><path d="M5.6 24.6h17.7V12.9l-8.8-7.2-8.9 7.5v11.4z" fill="#dff3ef"/><path d="M5 12.4c-.1.1-.2.2-.2.4v12.1c0 .3.2.5.5.5h18.3c.3 0 .5-.2.5-.5V12.8c0-.2-.1-.3-.2-.4l-9.2-7.3c-.2-.1-.4-.1-.6 0L9.7 8.7V5.1H7.9v5.1L5 12.4zm15.2 11.2h2.3V13.4l-7.9-6.3-7.9 6.3v10.2h6.8v-3.3c0-1.9 1.5-3.4 3.4-3.4h.1c1.9 0 3.4 1.5 3.4 3.4v3.3h-.2zm-5-3.2v3.3h3.2v-3.3c0-.9-.7-1.6-1.6-1.6h-.1c-.8 0-1.5.7-1.5 1.6z" fill-rule="evenodd" clip-rule="evenodd" fill="#0d2d38"/></svg>