<svg xmlns="http://www.w3.org/2000/svg" viewBox="0 0 362.1 362.1" xml:space="preserve"><path d="M351.5 170.4V191c-.2 1.1-.4 2.1-.6 3.2-.9 6.7-1.5 13.5-2.8 20.1-13.2 68.6-68.8 122.9-137.8 134.6-6.2 1.1-12.5 1.8-18.7 2.6h-21.3c-.7-.2-1.5-.5-2.2-.5-14.5-1-28.6-3.7-42.2-8.7C64 319.4 26.4 275.4 13.1 210.8c-1.3-6.3-1.8-12.7-2.7-19v-21.3c.9-6.2 1.5-12.5 2.6-18.7C25 82.6 79.1 27.2 147.7 13.9c7.7-1.5 15.5-2.3 23.3-3.4h20.6c.9.2 1.7.5 2.6.5 25.7 2 49.8 9.2 71.8 22.3 45.3 27 73.1 66.4 82.9 118.4 1.2 6.2 1.8 12.4 2.6 18.7zM95.8 180.8v34c.1 29.1 22.4 51.5 51.5 51.5 22.5.1 45.1.1 67.6 0 29.1-.1 51.4-22.4 51.4-51.5.1-22.5.1-45.1 0-67.6-.1-28.9-22.4-51.3-51.3-51.4-22.6-.1-45.3-.1-67.9 0-28.9.1-51.2 22.5-51.3 51.4v33.6z"/><path d="M95.8 180.8v-33.6c.1-28.9 22.4-51.3 51.3-51.4 22.6-.1 45.3-.1 67.9 0 28.9.1 51.2 22.5 51.3 51.4.1 22.5.1 45.1 0 67.6-.1 29.1-22.4 51.5-51.4 51.5-22.5.1-45.1.1-67.6 0-29.1-.1-51.4-22.5-51.5-51.5v-34zm85.6-67.8h-34c-19.8.1-34.3 14.3-34.4 34.1-.1 22.5-.1 45.1 0 67.6.1 19.9 14.4 34.2 34.2 34.3 22.5.1 45.1.1 67.6 0 19.9-.1 34.1-14.4 34.2-34.3.1-22.5.1-45.1 0-67.6-.1-19.9-14.5-34.1-34.4-34.1h-33.2z" fill="#fff"/><path d="M181.4 113h33.3c19.8.1 34.3 14.3 34.4 34.1.1 22.5.1 45.1 0 67.6-.1 19.9-14.4 34.2-34.2 34.3-22.5.1-45.1.1-67.6 0-19.9-.1-34.1-14.4-34.2-34.3-.1-22.5-.1-45.1 0-67.6.1-19.8 14.6-34.1 34.4-34.1h33.9zM137 181c0 24.4 19.5 43.9 43.9 44.1 24.3.1 44.1-19.6 44.1-43.9 0-24.5-19.4-44.1-43.8-44.2-24.5-.1-44.2 19.5-44.2 44zm88.4-33.2c5.9 0 10.8-4.8 10.9-10.7.1-6-4.9-11.1-10.9-11.1-5.9 0-10.8 4.9-10.9 10.7-.2 6.1 4.8 11.1 10.9 11.1z"/><path d="M137 181c0-24.5 19.7-44.1 44.3-44 24.3.1 43.8 19.8 43.8 44.2 0 24.3-19.8 44-44.1 43.9-24.5-.1-44-19.7-44-44.1zm70.9.1c.1-14.9-11.8-26.8-26.7-27-14.9-.1-26.9 11.7-27 26.6-.2 15 11.9 27.1 26.9 27.1 14.9.1 26.8-11.8 26.8-26.7zM225.4 147.8c-6.1 0-11-5-10.9-11 .1-5.9 5-10.7 10.9-10.7 6 0 11 5 10.9 11.1-.1 5.8-5 10.6-10.9 10.6z" fill="#fff"/><path d="M207.9 181.1c-.1 14.9-12 26.8-26.9 26.8-15 0-27-12.1-26.9-27.1.2-14.9 12.2-26.7 27-26.6 15 .1 26.9 12 26.8 26.9z"/></svg>