<svg xmlns="http://www.w3.org/2000/svg" viewBox="0 0 362.1 362.1" xml:space="preserve"><path d="M351.5 170.4V191c-.2 1.1-.4 2.1-.6 3.2-.9 6.7-1.5 13.5-2.8 20.1-13.3 68.6-68.8 122.9-137.8 134.6-6.2 1.1-12.5 1.8-18.7 2.6h-21.3c-.7-.2-1.5-.5-2.2-.5-14.5-1-28.6-3.7-42.2-8.7C64 319.4 26.4 275.4 13.1 210.8c-1.3-6.3-1.8-12.7-2.7-19v-21.3c.9-6.2 1.5-12.5 2.6-18.7C25 82.6 79.1 27.2 147.7 13.9c7.7-1.5 15.5-2.3 23.3-3.4h20.6c.9.2 1.7.5 2.6.5 25.7 2 49.8 9.2 71.8 22.3 45.3 27 73.1 66.4 82.9 118.4 1.2 6.2 1.8 12.4 2.6 18.7zm-175.1 73.4c16.3-.6 28.1-.9 39.8-1.6 8.3-.5 16.7-.8 24.8-2.7 11.6-2.7 20.1-9.1 22.3-22.1 3.9-23.8 4-47.5.3-71.2-.9-5.8-2.6-11.2-7.1-15.4-5.5-5.1-11.9-8.1-19.3-9-30.1-3.3-60.2-3.8-90.4-1.9-8.5.6-17.2.9-25.4 2.7-11.4 2.6-20.2 8.7-22.3 21.6-4 23.6-4.2 47.2-.5 70.9.9 6 2.4 11.7 7.1 16.1 5.5 5.1 11.9 8.5 19.2 9 18.6 1.6 37.3 2.6 51.5 3.6z"/><path d="M176.4 243.8c-14.2-.9-32.9-2-51.6-3.5-7.4-.6-13.8-3.9-19.2-9-4.7-4.4-6.1-10.1-7.1-16.1-3.7-23.7-3.5-47.3.5-70.9 2.2-12.9 10.9-19 22.3-21.6 8.3-1.8 16.9-2.2 25.4-2.7 30.2-2 60.3-1.5 90.4 1.9 7.4.8 13.8 3.9 19.3 9 4.5 4.2 6.2 9.5 7.1 15.4 3.7 23.8 3.6 47.5-.3 71.2-2.1 13-10.7 19.4-22.3 22.1-8 1.9-16.5 2.2-24.8 2.7-11.6.6-23.4.8-39.7 1.5zm-15.5-95.3v65.1c17.8-10.9 35.2-21.6 53-32.6-17.9-10.9-35.2-21.6-53-32.5z" fill="#fff"/><path d="M160.9 148.5c17.8 10.9 35.1 21.6 53 32.5-17.8 10.9-35.2 21.6-53 32.6v-65.1z"/></svg>