<svg xmlns="http://www.w3.org/2000/svg" viewBox="0 0 913.7 165.2" xml:space="preserve"><path d="M328.4 120h-49.3l63.7-83.4c4.2-5.5 4.9-12.8 1.8-19-3.1-6.3-9.3-10.2-16.4-10.2h-85.8c-10 0-18.2 8.1-18.2 18.1 0 10 8.2 18.2 18.2 18.2h49.2L228 127.1l-.2.3-.6.9c-.2.3-.3.5-.4.7-.2.3-.3.6-.5 1-.1.1-.2.3-.2.4-1.8 3.7-2.2 7.8-1.2 12.1.1.4.2.8.3 1 1 3.2 2.8 6.1 5.6 8.5l.4.3c.2.2.4.4.7.5.2.2.5.3.9.6.1.1.4.3.5.3.4.2.8.4 1.4.8 1 .5 2.1.9 3.4 1.2.5.1 1.1.3 1.6.3h.1c.5.1.9.1 1.4.2h87.2c10 0 18.2-8.1 18.2-18.2-.1-9.9-8.2-18-18.2-18M386.9 7c-10 0-18.2 8.1-18.2 18.1v112.8c0 10 8.1 18.2 18.2 18.2 10 0 18.1-8.1 18.1-18.4V25.2c0-10-8.1-18.2-18.1-18.2m160.9 10.6c-3.1-6.3-9.3-10.2-16.4-10.2h-85.8c-10 0-18.2 8.1-18.2 18.1 0 10 8.1 18.2 18.2 18.2h49.3l-63.7 83.4-.2.3-.6.9c-.2.3-.3.5-.4.7-.2.3-.3.6-.5 1 0 .1-.2.3-.2.4-1.8 3.7-2.2 7.8-1.3 12 .1.4.2.9.3 1.1 1 3.2 2.9 6.1 5.7 8.6.1.1.2.2.4.3.2.1.4.3.6.5.2.2.5.4.9.6.1.1.4.3.5.3.4.2.8.4 1.5.8 1 .5 2.1.9 3.4 1.2.5.1 1 .2 1.6.3h.2c.5.1.9.1 1.4.1h87.3c10 0 18.1-8.1 18.1-18.2 0-10-8.1-18.1-18.1-18.1h-49.3L546 36.6c4.2-5.5 4.9-12.8 1.8-19M590 7c-10 0-18.2 8.1-18.2 18.1v112.8c0 10 8.2 18.2 18.2 18.2s18.1-8.1 18.1-18.4V25.2C608.2 15.2 600 7 590 7m144.7.4h-94.5c-10 0-18.1 8.1-18.1 18.2 0 10 8.1 18.1 18.1 18.1h29.1v94.4c0 10 8.1 18.2 18.1 18.2 10 0 18.2-8.1 18.2-18.2V43.7h29.1c10 0 18.2-8.1 18.2-18.1-.1-10-8.2-18.2-18.2-18.2m156 19.7c-14.8-14.8-34.6-23-55.5-23h-1.3c-42.6.7-77.2 35.8-77.2 78.5 0 20.9 8.2 40.6 23 55.5 14.8 14.8 34.6 23 55.6 23 43.2 0 78.5-35.2 78.5-78.5-.1-21-8.2-40.7-23.1-55.5m-13.3 55.5c0 23.3-19 42.2-42.2 42.2-5.7 0-11.2-1.1-16.4-3.3-15.7-6.6-25.8-21.9-25.8-38.9 0-23.3 18.9-42.2 42.2-42.2 23.3 0 42.2 18.9 42.2 42.2M28.9 57.7c15.9 0 28.9-12.9 28.9-28.9S44.9 0 28.9 0C13 0 .1 12.9.1 28.9S13 57.7 28.9 57.7m82 49.7H87.4L118.9 66l14.9-19.5c0-.1.1-.2.2-.3 6.6-8.8 7.7-20.3 2.8-30.2-1-2-2.2-3.8-3.6-5.5-1.2-1.4-2.5-2.6-3.9-3.8-12.6-9.7-30.8-7.5-40.6 5L52.4 57.8 38.6 76 5.9 118.7c-.2.2-.3.4-.5.7l-.1.1c-.2.2-.3.5-.6.8-.1.1-.1.2-.2.3-.3.4-.5.8-.7 1.2-.3.4-.5.8-.7 1.3v.1c0 .1-.1.2-.2.3-.1.1-.1.3-.2.4-2.8 5.9-3.5 12.6-2.1 18.9v.1c0 .1.1.3.1.5.1.5.3 1.1.5 1.6 1.6 5 4.5 9.5 8.5 13.1.2.1.3.3.5.4 0 0 .1.1.2.1l.1.1c.4.4.9.7 1.4 1.1.3.2.5.4.9.6.4.3.8.5 1.2.8.5.3 1 .6 1.6.9.3.2.6.3.9.4 1.5.7 3.1 1.3 4.6 1.7.2.1.5.1.8.2.8.2 1.6.4 2.4.5h.2c.7.1 1.4.2 2.2.2h84.2c15.9 0 28.9-13 28.9-28.9 0-15.9-12.9-28.8-28.9-28.8" fill="#e11b22"/></svg>