<?xml version="1.0" encoding="utf-8"?>
<!-- Generator: Adobe Illustrator 23.0.2, SVG Export Plug-In . SVG Version: 6.00 Build 0)  -->
<svg version="1.1" id="Layer_1" xmlns="http://www.w3.org/2000/svg" xmlns:xlink="http://www.w3.org/1999/xlink" x="0px" y="0px"
	 viewBox="0 0 29 29" style="enable-background:new 0 0 29 29;" xml:space="preserve">
<path style="fill:#DFF3EF;" d="M5.6,24.6h17.7V12.9l-8.8-7.2l-8.9,7.5C5.6,13.2,5.6,24.6,5.6,24.6z"/>
<path style="fill-rule:evenodd;clip-rule:evenodd;fill:#0D2D38;" d="M5,12.4c-0.1,0.1-0.2,0.2-0.2,0.4v12.1c0,0.3,0.2,0.5,0.5,0.5
	h18.3c0.3,0,0.5-0.2,0.5-0.5V12.8c0-0.2-0.1-0.3-0.2-0.4l-9.2-7.3c-0.2-0.1-0.4-0.1-0.6,0L9.7,8.7V5.1H7.9v5.1L5,12.4z M20.2,23.6
	h2.3V13.4l-7.9-6.3l-7.9,6.3v10.2h6.8v-3.3c0-1.9,1.5-3.4,3.4-3.4H17c1.9,0,3.4,1.5,3.4,3.4v3.3H20.2z M15.2,20.4v3.3h3.2v-3.3
	c0-0.9-0.7-1.6-1.6-1.6h-0.1C15.9,18.8,15.2,19.5,15.2,20.4z"/>
</svg>
