<?xml version="1.0" encoding="utf-8"?>
<!-- Generator: Adobe Illustrator 23.0.2, SVG Export Plug-In . SVG Version: 6.00 Build 0)  -->
<svg version="1.1" id="Layer_1" xmlns="http://www.w3.org/2000/svg" xmlns:xlink="http://www.w3.org/1999/xlink" x="0px" y="0px"
	 viewBox="0 0 913.7 165.2" style="enable-background:new 0 0 913.7 165.2;" xml:space="preserve">
<g>
	<path style="fill:#E11B22;" d="M328.4,120h-49.3l63.7-83.4c4.2-5.5,4.9-12.8,1.8-19c-3.1-6.3-9.3-10.2-16.4-10.2h-85.8
		c-10,0-18.2,8.1-18.2,18.1c0,10,8.2,18.2,18.2,18.2h49.2L228,127.1c0,0-0.2,0.3-0.2,0.3l-0.6,0.9c-0.2,0.3-0.3,0.5-0.4,0.7
		c-0.2,0.3-0.3,0.6-0.5,1c-0.1,0.1-0.2,0.3-0.2,0.4c-1.8,3.7-2.2,7.8-1.2,12.1c0.1,0.4,0.2,0.8,0.3,1c1,3.2,2.8,6.1,5.6,8.5
		c0,0,0.4,0.3,0.4,0.3c0.2,0.2,0.4,0.4,0.7,0.5c0.2,0.2,0.5,0.3,0.9,0.6c0.1,0.1,0.4,0.3,0.5,0.3c0.4,0.2,0.8,0.4,1.4,0.8
		c1,0.5,2.1,0.9,3.4,1.2c0.5,0.1,1.1,0.3,1.6,0.3c0,0,0.1,0,0.1,0c0.5,0.1,0.9,0.1,1.4,0.2c0.2,0,0.4,0,0.5,0c0.2,0,0.3,0,0.6,0h0.3
		h85.8c10,0,18.2-8.1,18.2-18.2C346.5,128.1,338.4,120,328.4,120"/>
	<path style="fill:#E11B22;" d="M386.9,7c-10,0-18.2,8.1-18.2,18.1v112.8c0,10,8.1,18.2,18.2,18.2c10,0,18.1-8.1,18.1-18.4V25.2
		C405,15.2,396.9,7,386.9,7"/>
	<path style="fill:#E11B22;" d="M547.8,17.6c-3.1-6.3-9.3-10.2-16.4-10.2h-85.8c-10,0-18.2,8.1-18.2,18.1c0,10,8.1,18.2,18.2,18.2
		h49.3l-63.7,83.4c0,0-0.2,0.3-0.2,0.3l-0.6,0.9c-0.2,0.3-0.3,0.5-0.4,0.7c-0.2,0.3-0.3,0.6-0.5,1c0,0.1-0.2,0.3-0.2,0.4
		c-1.8,3.7-2.2,7.8-1.3,12c0.1,0.4,0.2,0.9,0.3,1.1c1,3.2,2.9,6.1,5.7,8.6c0.1,0.1,0.2,0.2,0.4,0.3c0.2,0.1,0.4,0.3,0.6,0.5
		c0.2,0.2,0.5,0.4,0.9,0.6c0.1,0.1,0.4,0.3,0.5,0.3c0.4,0.2,0.8,0.4,1.5,0.8c1,0.5,2.1,0.9,3.4,1.2c0.5,0.1,1,0.2,1.6,0.3
		c0,0,0.1,0,0.2,0c0.5,0.1,0.9,0.1,1.4,0.1c0.2,0,0.4,0,0.6,0c0.1,0,0.3,0,0.6,0h0.3h85.8c10,0,18.1-8.1,18.1-18.2
		c0-10-8.1-18.1-18.1-18.1h-49.3L546,36.6C550.2,31.1,550.9,23.8,547.8,17.6"/>
	<path style="fill:#E11B22;" d="M590,7c-10,0-18.2,8.1-18.2,18.1v112.6v0.1v0.1c0,10,8.2,18.2,18.2,18.2c10,0,18.1-8.1,18.1-18.4
		V25.2C608.2,15.2,600,7,590,7"/>
	<path style="fill:#E11B22;" d="M734.7,7.4h-94.5c-10,0-18.1,8.1-18.1,18.2c0,10,8.1,18.1,18.1,18.1h29.1v94.4
		c0,10,8.1,18.2,18.1,18.2c10,0,18.2-8.1,18.2-18.2V43.7h29.1c10,0,18.2-8.1,18.2-18.1C752.8,15.6,744.7,7.4,734.7,7.4"/>
	<path style="fill:#E11B22;" d="M890.7,27.1c-14.8-14.8-34.6-23-55.5-23h-0.8c-0.2,0-0.4,0-0.5,0c-42.6,0.7-77.2,35.8-77.2,78.5
		c0,20.9,8.2,40.6,23,55.5c14.8,14.8,34.6,23,55.6,23h0c43.2,0,78.5-35.2,78.5-78.5C913.7,61.6,905.6,41.9,890.7,27.1 M877.4,82.6
		c0,23.3-19,42.2-42.2,42.2c-5.7,0-11.2-1.1-16.4-3.3c-15.7-6.6-25.8-21.9-25.8-38.9c0-23.3,18.9-42.2,42.2-42.2
		C858.5,40.4,877.4,59.3,877.4,82.6"/>
	<path style="fill:#E11B22;" d="M28.9,57.7c15.9,0,28.9-12.9,28.9-28.9S44.9,0,28.9,0C13,0,0.1,12.9,0.1,28.9S13,57.7,28.9,57.7"/>
	<path style="fill:#E11B22;" d="M110.9,107.4H87.4L118.9,66l14.9-19.5c0-0.1,0.1-0.2,0.2-0.3c6.6-8.8,7.7-20.3,2.8-30.2
		c-1-2-2.2-3.8-3.6-5.5c-1.2-1.4-2.5-2.6-3.9-3.8C116.7-3,98.5-0.8,88.7,11.7L52.4,57.8h0L38.6,76L5.9,118.7
		c-0.2,0.2-0.3,0.4-0.5,0.7c0,0,0,0-0.1,0.1c-0.2,0.2-0.3,0.5-0.6,0.8c-0.1,0.1-0.1,0.2-0.2,0.3c-0.3,0.4-0.5,0.8-0.7,1.2
		c-0.3,0.4-0.5,0.8-0.7,1.3c0,0,0,0.1,0,0.1c0,0.1-0.1,0.2-0.2,0.3c-0.1,0.1-0.1,0.3-0.2,0.4c-2.8,5.9-3.5,12.6-2.1,18.9
		c0,0,0,0.1,0,0.1c0,0.1,0.1,0.3,0.1,0.5c0.1,0.5,0.3,1.1,0.5,1.6c1.6,5,4.5,9.5,8.5,13.1c0.2,0.1,0.3,0.3,0.5,0.4
		c0,0,0.1,0.1,0.2,0.1c0,0,0.1,0.1,0.1,0.1c0.4,0.4,0.9,0.7,1.4,1.1c0.3,0.2,0.5,0.4,0.9,0.6c0.4,0.3,0.8,0.5,1.2,0.8
		c0.5,0.3,1,0.6,1.6,0.9c0.3,0.2,0.6,0.3,0.9,0.4c1.5,0.7,3.1,1.3,4.6,1.7c0.2,0.1,0.5,0.1,0.8,0.2c0.8,0.2,1.6,0.4,2.4,0.5
		c0.1,0,0.1,0,0.2,0c0.7,0.1,1.4,0.2,2.2,0.2c0.3,0,0.6,0,0.8,0c0.4,0,0.8,0,1.2,0H29h81.9c15.9,0,28.9-13,28.9-28.9
		C139.8,120.3,126.9,107.4,110.9,107.4"/>
</g>
</svg>